<svg width="41" height="41" viewBox="0 0 41 41" fill="none" xmlns="http://www.w3.org/2000/svg">
<path fill-rule="evenodd" clip-rule="evenodd" d="M39.9835 28.811C39.0544 26.9396 37.83 25.23 36.3576 23.7481C35.8565 23.1655 35.2691 22.5907 34.8104 22.1421L34.7463 22.0794C34.5097 21.8477 34.3143 21.6555 34.1544 21.49C36.1676 18.6904 37.8908 15.6927 39.2968 12.543L39.3535 12.4159L39.3933 12.2825C39.578 11.6626 39.7908 10.4837 39.038 9.41833C38.2598 8.31718 37.0138 8.11858 36.1794 8.11858H32.3406C31.5404 8.0819 30.7479 8.29825 30.0766 8.73809C29.4001 9.18125 28.8826 9.82767 28.5978 10.5833C27.7712 12.5525 26.7368 14.4255 25.5134 16.1711V11.6725C25.5134 11.091 25.4588 10.1183 24.8361 9.29725C24.0906 8.3142 23.0124 8.11858 22.264 8.11858H16.1729C15.3882 8.10044 14.6249 8.38103 14.0384 8.90484C13.4377 9.44126 13.0696 10.1906 13.0121 10.9939L13.0067 11.07V11.1462C13.0067 11.9756 13.3353 12.5874 13.5979 12.9721C13.7155 13.1444 13.8412 13.3012 13.9206 13.4002L13.9389 13.4231C14.0236 13.5287 14.0801 13.5992 14.1369 13.6763C14.2861 13.8793 14.5007 14.1923 14.5615 15.0021V17.5184C13.5114 15.7922 12.4036 13.4951 11.5701 11.0417L11.5573 11.0041L11.5432 10.9669C11.3353 10.4226 11.002 9.63061 10.3344 9.02455C9.5545 8.31653 8.63203 8.11858 7.7931 8.11858H3.89819C3.04947 8.11858 2.0263 8.31714 1.26286 9.12248C0.512107 9.91445 0.427078 10.8634 0.427078 11.368V11.5954L0.474978 11.8177C1.5538 16.8251 3.77671 21.5142 6.96907 25.5186C8.41641 27.8009 10.3776 29.7141 12.6966 31.1045C15.0525 32.5173 17.7105 33.3499 20.4513 33.5341L20.5227 33.5389H20.5945C21.8344 33.5389 23.1271 33.4319 24.0991 32.7841C25.4104 31.9103 25.5134 30.5682 25.5134 29.8994V27.9555C25.85 28.2275 26.2675 28.5937 26.7786 29.0859C27.3965 29.7043 27.8885 30.2402 28.3105 30.708L28.5357 30.9584L28.537 30.9598C28.8647 31.3247 29.1872 31.6839 29.4809 31.9791C29.85 32.3502 30.3051 32.7592 30.8773 33.0612C31.4967 33.3884 32.1469 33.5363 32.8376 33.5363H36.7351C37.5562 33.5363 38.7339 33.3421 39.5619 32.3821C40.4643 31.336 40.3954 30.0537 40.1117 29.1322L40.0606 28.9665L39.9835 28.811ZM30.2131 28.9914C29.7744 28.5051 29.2453 27.9285 28.5767 27.26L28.5712 27.2546C26.2545 25.0209 25.1719 24.6318 24.4066 24.6318C23.9995 24.6318 23.549 24.6776 23.2567 25.0416C23.1187 25.2135 23.0463 25.4209 23.0056 25.637C22.9649 25.8527 22.9509 26.1061 22.9509 26.3946V29.8994C22.9509 30.3347 22.8794 30.5175 22.6781 30.6518C22.4099 30.8305 21.8368 30.9753 20.6088 30.9764C18.278 30.8175 16.018 30.1084 14.0143 28.9069C12.0065 27.703 10.3134 26.0393 9.07444 24.0528L9.06096 24.0313L9.04501 24.0113C6.07034 20.3088 3.99755 15.9656 2.99009 11.3247C2.99556 11.101 3.04402 10.9683 3.12255 10.8854C3.20348 10.8001 3.39956 10.6811 3.89819 10.6811H7.7931C8.22637 10.6811 8.45061 10.7753 8.61199 10.9218C8.79496 11.0879 8.95364 11.37 9.14643 11.8736C10.1024 14.6855 11.3952 17.3152 12.6195 19.2486C13.2313 20.2151 13.8335 21.0195 14.3761 21.5879C14.647 21.8718 14.9126 22.1069 15.1661 22.2741C15.4114 22.4359 15.6896 22.5635 15.9756 22.5635C16.1266 22.5635 16.3031 22.548 16.4731 22.4726C16.656 22.3918 16.7979 22.2569 16.8981 22.0759C17.0754 21.7561 17.124 21.2824 17.124 20.6618V14.9154L17.1231 14.902C17.0346 13.504 16.6125 12.7176 16.2015 12.1585C16.1114 12.036 16.0226 11.9253 15.9449 11.8285L15.9236 11.802C15.8382 11.6955 15.7703 11.6095 15.7145 11.5277C15.6123 11.3779 15.5727 11.2734 15.5694 11.1615C15.5828 11.0286 15.6454 10.9053 15.7453 10.8161C15.849 10.7235 15.9846 10.6753 16.1235 10.6811H22.264C22.6161 10.6811 22.7347 10.767 22.7943 10.8457C22.8785 10.9567 22.9509 11.1878 22.9509 11.6725V19.4089C22.9509 20.3278 23.3746 20.95 23.9898 20.95C24.6977 20.95 25.208 20.5205 26.1004 19.6281L26.1153 19.6132L26.1286 19.5968C28.1287 17.1578 29.7634 14.4405 30.9801 11.5303L30.9878 11.5085C31.0794 11.2513 31.2524 11.0312 31.4808 10.8816C31.7091 10.732 31.98 10.6612 32.2523 10.6801L32.2672 10.6811H36.1794C36.7129 10.6811 36.8885 10.8169 36.9453 10.8972C37.0056 10.9826 37.0476 11.1657 36.9451 11.5248C35.5424 14.662 33.8077 17.6399 31.7716 20.4084L31.7588 20.4279C31.5611 20.7303 31.3443 21.0648 31.3129 21.4488C31.2792 21.8612 31.4578 22.2362 31.7699 22.638C31.9974 22.9744 32.4667 23.4337 32.9428 23.8998L32.9877 23.9437C33.4869 24.4322 34.0276 24.9615 34.4617 25.474L34.4733 25.4875L34.4859 25.5001C35.78 26.7909 36.8561 28.2832 37.6722 29.9184C37.8025 30.3636 37.7227 30.5911 37.6214 30.7085C37.503 30.8458 37.2376 30.9738 36.7351 30.9738H32.8376C32.5332 30.9738 32.2983 30.9138 32.0738 30.7953C31.8399 30.6718 31.5994 30.4753 31.2977 30.1721C31.0548 29.9278 30.7893 29.6322 30.4654 29.272C30.3851 29.1826 30.3012 29.089 30.2131 28.9914Z" fill="black"/>
</svg>
