<svg width="41" height="41" viewBox="0 0 41 41" fill="none" xmlns="http://www.w3.org/2000/svg">
<path d="M32.8 5.46667H8.2C3.67908 5.46667 0 9.14569 0 13.6667V27.3333C0 31.8542 3.67908 35.5333 8.2 35.5333H32.8C37.3209 35.5333 41 31.8542 41 27.3333V13.6667C41 9.14569 37.3209 5.46667 32.8 5.46667ZM39.1778 27.3333C39.1778 30.8502 36.3169 33.711 32.8 33.711H8.2C4.68311 33.711 1.82222 30.8502 1.82222 27.3333V13.6667C1.82222 10.1498 4.68311 7.2889 8.2 7.2889H32.8C36.3169 7.2889 39.1778 10.1498 39.1778 13.6667V27.3333V27.3333ZM14.5778 28.2088L27.9301 20.5009L14.5778 12.7911V28.2088ZM16.4 15.9472L24.2857 20.5009L16.4 25.0528V15.9472Z" fill="black"/>
</svg>
